<mxfile host="app.diagrams.net" modified="2023-11-21T17:16:57.388Z" agent="Mozilla/5.0 (Macintosh; Intel Mac OS X 10_15_7) AppleWebKit/537.36 (KHTML, like Gecko) Chrome/119.0.0.0 Safari/537.36" etag="KiJhqYQdFKzNOAwsEwso" version="22.1.3" type="github">
  <diagram id="prtHgNgQTEPvFCAcTncT" name="Page-1">
    <mxGraphModel dx="1414" dy="676" grid="1" gridSize="10" guides="1" tooltips="1" connect="1" arrows="1" fold="1" page="1" pageScale="1" pageWidth="827" pageHeight="1169" math="0" shadow="0">
      <root>
        <mxCell id="0" />
        <mxCell id="1" parent="0" />
        <mxCell id="DIbWTr6jM3QLTpThtAw4-1" value="" style="rounded=0;whiteSpace=wrap;html=1;" vertex="1" parent="1">
          <mxGeometry x="320" y="180" width="140" height="30" as="geometry" />
        </mxCell>
        <mxCell id="DIbWTr6jM3QLTpThtAw4-2" value="" style="rounded=0;whiteSpace=wrap;html=1;" vertex="1" parent="1">
          <mxGeometry x="320" y="150" width="140" height="30" as="geometry" />
        </mxCell>
        <mxCell id="DIbWTr6jM3QLTpThtAw4-3" value="" style="rounded=0;whiteSpace=wrap;html=1;" vertex="1" parent="1">
          <mxGeometry x="320" y="210" width="140" height="30" as="geometry" />
        </mxCell>
        <mxCell id="DIbWTr6jM3QLTpThtAw4-5" value="FROGGER CLONE BY TILLMAN TATE" style="text;html=1;strokeColor=none;fillColor=none;align=center;verticalAlign=middle;whiteSpace=wrap;rounded=0;" vertex="1" parent="1">
          <mxGeometry x="270" y="40" width="210" height="90" as="geometry" />
        </mxCell>
      </root>
    </mxGraphModel>
  </diagram>
</mxfile>
